<svg xmlns="http://www.w3.org/2000/svg" width="60" height="59" fill="none"><path fill="#E16161" d="M30 .438c16.055 0 29.063 13.007 29.063 29.062S46.055 58.563 30 58.563.938 45.555.938 29.5 13.945.438 30 .438Zm14.18 36.796L36.563 29.5l7.617-7.617c.586-.469.586-1.406 0-1.992l-4.57-4.57c-.587-.587-1.524-.587-1.993 0L30 22.937l-7.617-7.618c-.586-.586-1.524-.586-1.992 0l-4.688 4.57c-.586.587-.586 1.524 0 1.993l7.735 7.617-7.735 7.617c-.586.586-.586 1.524 0 1.992l4.57 4.688c.586.586 1.524.586 1.993 0L30 36.063l7.617 7.734c.469.586 1.406.586 1.992 0l4.57-4.57c.587-.586.587-1.524 0-1.993Z"/></svg>