<svg xmlns="http://www.w3.org/2000/svg" width="12" height="13" fill="none"><path fill="#F4F4F4" d="M11.773 5.095a.141.141 0 0 1 .227.11v4.793c0 .621-.504 1.125-1.125 1.125h-9.75A1.125 1.125 0 0 1 0 9.998v-4.79a.14.14 0 0 1 .227-.11c.525.407 1.221.925 3.612 2.662.495.36 1.329 1.12 2.161 1.115.837.007 1.688-.768 2.163-1.115 2.39-1.737 3.085-2.257 3.61-2.665ZM6 8.123c.544.01 1.327-.684 1.72-.97 3.11-2.257 3.347-2.454 4.064-3.017A.56.56 0 0 0 12 3.693v-.445c0-.621-.504-1.125-1.125-1.125h-9.75C.504 2.123 0 2.627 0 3.248v.445c0 .174.08.336.216.443.717.56.954.76 4.064 3.017.393.286 1.176.98 1.72.97Z"/></svg>