<svg xmlns="http://www.w3.org/2000/svg" width="21" height="16" fill="none"><path fill="#008B75" d="M.98 13.469c0 .896.698 1.594 1.594 1.594h15.938c.863 0 1.593-.698 1.593-1.594V7.625H.98v5.844Zm6.375-2.258c0-.2.166-.399.399-.399h4.515c.2 0 .399.2.399.399v1.328c0 .232-.2.399-.399.399H7.754a.384.384 0 0 1-.399-.399v-1.328Zm-4.25 0c0-.2.166-.399.399-.399h2.39c.2 0 .399.2.399.399v1.328c0 .232-.2.399-.399.399h-2.39a.384.384 0 0 1-.399-.399v-1.328Zm17-9.43c0-.863-.73-1.593-1.593-1.593H2.574C1.678.188.98.918.98 1.78v1.594h19.125V1.781Z"/></svg>