<svg xmlns="http://www.w3.org/2000/svg" width="12" height="13" fill="none"><g clip-path="url(#a)"><path fill="#F4F4F4" d="M11.658 9.103 9.033 7.978a.562.562 0 0 0-.657.161L7.214 9.56A8.687 8.687 0 0 1 3.06 5.408l1.42-1.163a.561.561 0 0 0 .162-.656L3.518.963a.566.566 0 0 0-.645-.326L.436 1.2A.563.563 0 0 0 0 1.748C0 7.76 4.873 12.623 10.875 12.623a.562.562 0 0 0 .548-.436l.563-2.438a.568.568 0 0 0-.328-.646Z"/></g><defs><clipPath id="a"><path fill="#fff" d="M0 .623h12v12H0z"/></clipPath></defs></svg>