<svg xmlns="http://www.w3.org/2000/svg" width="25" height="32" fill="none"><path fill="#fff" d="M.004 12.168V6.199c0-.707.386-1.122 1.094-1.126 1.792-.012 3.45-.544 5.051-1.28 1.982-.913 3.786-2.106 5.449-3.51.464-.392.93-.372 1.415.03 1.987 1.643 4.132 3.034 6.56 3.953 1.25.473 2.534.809 3.89.807.714-.001 1.107.412 1.107 1.112 0 3.833.025 7.667-.007 11.5-.026 3.195-.994 6.083-3.064 8.568-1.314 1.578-2.93 2.792-4.712 3.801-1.278.724-2.622 1.311-3.99 1.844a1.314 1.314 0 0 1-1.006.004c-2.267-.879-4.442-1.921-6.376-3.415C2.473 26.215.68 23.272.15 19.595A13.265 13.265 0 0 1 0 17.636c.009-1.823.003-3.646.003-5.468h.001Zm22.668.343h.003V7.417c0-.455 0-.463-.454-.521-1.727-.22-3.346-.78-4.903-1.526a25.84 25.84 0 0 1-4.658-2.9c-.431-.334-.307-.338-.754.007A27.226 27.226 0 0 1 9.4 4.204C7.186 5.55 4.852 6.581 2.25 6.907c-.314.04-.355.192-.354.458.007 3.083.008 6.166.003 9.25 0 .802.027 1.6.12 2.398.376 3.202 1.852 5.797 4.37 7.817 1.69 1.357 3.61 2.306 5.616 3.103a.73.73 0 0 0 .576-.003c1.14-.456 2.256-.959 3.325-1.564 1.825-1.033 3.439-2.309 4.658-4.03 1.435-2.028 2.049-4.317 2.102-6.763.036-1.687.007-3.375.007-5.062Z"/><path fill="#fff" d="M18.904 16c0 3.646-2.947 6.573-6.62 6.573-3.669 0-6.614-2.93-6.613-6.578 0-3.638 2.956-6.56 6.634-6.557 3.649.001 6.598 2.934 6.599 6.562Zm-6.59-4.68c-2.59-.009-4.743 2.114-4.746 4.68-.002 2.548 2.14 4.681 4.708 4.688 2.568.007 4.718-2.114 4.73-4.666.011-2.55-2.127-4.693-4.692-4.702Z"/><path fill="#fff" d="M15.125 15.022c-.007.302-.092.54-.289.735-.935.927-1.864 1.858-2.805 2.78-.398.39-.978.382-1.384-.005-.31-.296-.614-.598-.912-.906-.377-.39-.379-.989-.016-1.352a.962.962 0 0 1 1.359.01c.206.205.33.2.53-.005a92.148 92.148 0 0 1 1.89-1.878c.308-.3.682-.35 1.076-.188.372.153.521.46.55.81v-.001Z"/></svg>